<svg width="340" height="58" viewBox="0 0 340 58" fill="none" xmlns="http://www.w3.org/2000/svg">
<path d="M0 6H340V51.5H0V6Z" fill="#B2C541"/>
<path d="M98.0625 57.5C96.2813 57.5 94.75 57.2708 93.4688 56.8125C92.1875 56.3646 91.1198 55.7708 90.2656 55.0313C89.4219 54.3021 88.75 53.5208 88.25 52.6875L91.1875 50.625C91.5208 51.0625 91.9427 51.5625 92.4531 52.125C92.9635 52.6979 93.6615 53.1927 94.5469 53.6094C95.4427 54.0365 96.6146 54.25 98.0625 54.25C100 54.25 101.599 53.7813 102.859 52.8438C104.12 51.9063 104.75 50.4375 104.75 48.4375V43.5625H104.438C104.167 44 103.781 44.5417 103.281 45.1875C102.792 45.8229 102.083 46.3906 101.156 46.8906C100.24 47.3802 99 47.625 97.4375 47.625C95.5 47.625 93.7604 47.1667 92.2188 46.25C90.6875 45.3333 89.474 44 88.5781 42.25C87.6927 40.5 87.25 38.375 87.25 35.875C87.25 33.4167 87.6823 31.276 88.5469 29.4531C89.4115 27.6198 90.6146 26.2031 92.1563 25.2031C93.6979 24.1927 95.4792 23.6875 97.5 23.6875C99.0625 23.6875 100.302 23.9479 101.219 24.4688C102.146 24.9792 102.854 25.5625 103.344 26.2187C103.844 26.8646 104.229 27.3958 104.5 27.8125H104.875V24H108.438V48.6875C108.438 50.75 107.969 52.4271 107.031 53.7188C106.104 55.0208 104.854 55.974 103.281 56.5781C101.719 57.1927 99.9792 57.5 98.0625 57.5ZM97.9375 44.3125C99.4167 44.3125 100.667 43.974 101.688 43.2969C102.708 42.6198 103.484 41.6458 104.016 40.375C104.547 39.1042 104.813 37.5833 104.813 35.8125C104.813 34.0833 104.552 32.5573 104.031 31.2344C103.51 29.9115 102.74 28.875 101.719 28.125C100.698 27.375 99.4375 27 97.9375 27C96.375 27 95.0729 27.3958 94.0313 28.1875C93 28.9792 92.224 30.0417 91.7031 31.375C91.1927 32.7083 90.9375 34.1875 90.9375 35.8125C90.9375 37.4792 91.1979 38.9531 91.7188 40.2344C92.25 41.5052 93.0313 42.5052 94.0625 43.2344C95.1042 43.9531 96.3958 44.3125 97.9375 44.3125ZM117.388 48V24H120.95V27.625H121.2C121.638 26.4375 122.429 25.474 123.575 24.7344C124.721 23.9948 126.013 23.625 127.45 23.625C127.721 23.625 128.059 23.6302 128.466 23.6406C128.872 23.651 129.179 23.6667 129.388 23.6875V27.4375C129.263 27.4062 128.976 27.3594 128.528 27.2969C128.091 27.224 127.627 27.1875 127.138 27.1875C125.971 27.1875 124.929 27.4323 124.013 27.9219C123.106 28.401 122.388 29.0677 121.856 29.9219C121.335 30.7656 121.075 31.7292 121.075 32.8125V48H117.388ZM142.941 48.5C140.629 48.5 138.634 47.9896 136.957 46.9688C135.29 45.9375 134.004 44.5 133.097 42.6562C132.202 40.8021 131.754 38.6458 131.754 36.1875C131.754 33.7292 132.202 31.5625 133.097 29.6875C134.004 27.8021 135.264 26.3333 136.879 25.2812C138.504 24.2187 140.399 23.6875 142.566 23.6875C143.816 23.6875 145.05 23.8958 146.269 24.3125C147.488 24.7292 148.597 25.4062 149.597 26.3438C150.597 27.2708 151.394 28.5 151.988 30.0312C152.582 31.5625 152.879 33.4479 152.879 35.6875V37.25H134.379V34.0625H149.129C149.129 32.7083 148.858 31.5 148.316 30.4375C147.785 29.375 147.024 28.5365 146.035 27.9219C145.056 27.3073 143.899 27 142.566 27C141.097 27 139.827 27.3646 138.754 28.0937C137.691 28.8125 136.873 29.75 136.3 30.9062C135.728 32.0625 135.441 33.3021 135.441 34.625V36.75C135.441 38.5625 135.754 40.099 136.379 41.3594C137.014 42.6094 137.894 43.5625 139.019 44.2188C140.144 44.8646 141.452 45.1875 142.941 45.1875C143.91 45.1875 144.785 45.0521 145.566 44.7812C146.358 44.5 147.04 44.0833 147.613 43.5312C148.186 42.9687 148.629 42.2708 148.941 41.4375L152.504 42.4375C152.129 43.6458 151.498 44.7083 150.613 45.625C149.728 46.5312 148.634 47.2396 147.332 47.75C146.03 48.25 144.566 48.5 142.941 48.5ZM165.47 48.5C163.158 48.5 161.163 47.9896 159.486 46.9688C157.819 45.9375 156.533 44.5 155.627 42.6562C154.731 40.8021 154.283 38.6458 154.283 36.1875C154.283 33.7292 154.731 31.5625 155.627 29.6875C156.533 27.8021 157.793 26.3333 159.408 25.2812C161.033 24.2187 162.929 23.6875 165.095 23.6875C166.345 23.6875 167.58 23.8958 168.799 24.3125C170.017 24.7292 171.127 25.4062 172.127 26.3438C173.127 27.2708 173.924 28.5 174.517 30.0312C175.111 31.5625 175.408 33.4479 175.408 35.6875V37.25H156.908V34.0625H171.658C171.658 32.7083 171.387 31.5 170.845 30.4375C170.314 29.375 169.554 28.5365 168.564 27.9219C167.585 27.3073 166.429 27 165.095 27C163.627 27 162.356 27.3646 161.283 28.0937C160.22 28.8125 159.403 29.75 158.83 30.9062C158.257 32.0625 157.97 33.3021 157.97 34.625V36.75C157.97 38.5625 158.283 40.099 158.908 41.3594C159.543 42.6094 160.424 43.5625 161.549 44.2188C162.674 44.8646 163.981 45.1875 165.47 45.1875C166.439 45.1875 167.314 45.0521 168.095 44.7812C168.887 44.5 169.569 44.0833 170.142 43.5312C170.715 42.9687 171.158 42.2708 171.47 41.4375L175.033 42.4375C174.658 43.6458 174.028 44.7083 173.142 45.625C172.257 46.5312 171.163 47.2396 169.861 47.75C168.559 48.25 167.095 48.5 165.47 48.5ZM183.825 33.5625V48H180.137V24H183.7V27.75H184.012C184.575 26.5313 185.429 25.5521 186.575 24.8125C187.721 24.0625 189.2 23.6875 191.012 23.6875C192.637 23.6875 194.059 24.0208 195.278 24.6875C196.497 25.3438 197.445 26.3438 198.122 27.6875C198.799 29.0208 199.137 30.7083 199.137 32.75V48H195.45V33C195.45 31.1146 194.96 29.6458 193.981 28.5937C193.002 27.5312 191.658 27 189.95 27C188.773 27 187.721 27.2552 186.794 27.7656C185.877 28.276 185.153 29.0208 184.622 30C184.09 30.9792 183.825 32.1667 183.825 33.5625Z" fill="#1E1E1E"/>
<path d="M206.227 6V22H204.836V6H206.227ZM213.258 22.2734C212.534 22.2734 211.872 22.1328 211.273 21.8516C210.674 21.5651 210.198 21.1536 209.844 20.6172C209.49 20.0755 209.313 19.4193 209.313 18.6484C209.313 18.0547 209.424 17.5547 209.648 17.1484C209.872 16.7422 210.19 16.4089 210.602 16.1484C211.013 15.888 211.5 15.6823 212.063 15.5312C212.625 15.3802 213.245 15.263 213.922 15.1797C214.594 15.0964 215.161 15.0234 215.625 14.9609C216.094 14.8984 216.451 14.7995 216.695 14.6641C216.94 14.5286 217.063 14.3099 217.063 14.0078V13.7266C217.063 12.9089 216.818 12.2656 216.328 11.7969C215.844 11.3229 215.146 11.0859 214.234 11.0859C213.37 11.0859 212.664 11.276 212.117 11.6562C211.576 12.0365 211.195 12.4844 210.977 13L209.656 12.5234C209.927 11.8672 210.302 11.3437 210.781 10.9531C211.26 10.5573 211.797 10.2734 212.391 10.1016C212.984 9.92448 213.586 9.83594 214.195 9.83594C214.654 9.83594 215.13 9.89583 215.625 10.0156C216.125 10.1354 216.589 10.3437 217.016 10.6406C217.443 10.9323 217.789 11.3411 218.055 11.8672C218.32 12.388 218.453 13.0495 218.453 13.8516V22H217.063V20.1016H216.977C216.81 20.4557 216.562 20.7995 216.234 21.1328C215.906 21.4661 215.495 21.7396 215 21.9531C214.505 22.1667 213.924 22.2734 213.258 22.2734ZM213.445 21C214.185 21 214.826 20.8359 215.367 20.5078C215.909 20.1797 216.326 19.7448 216.617 19.2031C216.914 18.6562 217.063 18.0547 217.063 17.3984V15.6641C216.958 15.763 216.784 15.8516 216.539 15.9297C216.299 16.0078 216.021 16.0781 215.703 16.1406C215.391 16.1979 215.078 16.2474 214.766 16.2891C214.453 16.3307 214.172 16.3672 213.922 16.3984C213.245 16.4818 212.667 16.612 212.188 16.7891C211.708 16.9661 211.341 17.2109 211.086 17.5234C210.831 17.8307 210.703 18.2266 210.703 18.7109C210.703 19.4401 210.964 20.0052 211.484 20.4062C212.005 20.8021 212.659 21 213.445 21ZM222.441 22V6H223.84V12.2891H223.965C224.121 11.9297 224.345 11.5599 224.637 11.1797C224.934 10.7995 225.322 10.4818 225.801 10.2266C226.285 9.96615 226.895 9.83594 227.629 9.83594C228.613 9.83594 229.478 10.0964 230.223 10.6172C230.967 11.1328 231.548 11.8568 231.965 12.7891C232.382 13.7161 232.59 14.7969 232.59 16.0313C232.59 17.2708 232.382 18.3568 231.965 19.2891C231.553 20.2214 230.975 20.9479 230.23 21.4687C229.491 21.9896 228.632 22.25 227.652 22.25C226.923 22.25 226.314 22.1198 225.824 21.8594C225.34 21.599 224.949 21.2786 224.652 20.8984C224.355 20.513 224.126 20.138 223.965 19.7734H223.793V22H222.441ZM223.816 16.0078C223.816 16.9766 223.96 17.8359 224.246 18.5859C224.538 19.3307 224.954 19.9167 225.496 20.3437C226.043 20.7656 226.704 20.9766 227.48 20.9766C228.277 20.9766 228.952 20.7578 229.504 20.3203C230.056 19.8776 230.475 19.2812 230.762 18.5313C231.048 17.7812 231.191 16.9401 231.191 16.0078C231.191 15.0859 231.048 14.2552 230.762 13.5156C230.48 12.776 230.064 12.1901 229.512 11.7578C228.96 11.3203 228.283 11.1016 227.48 11.1016C226.699 11.1016 226.035 11.3125 225.488 11.7344C224.947 12.151 224.533 12.7292 224.246 13.4687C223.96 14.2031 223.816 15.0495 223.816 16.0078Z" fill="#1E1E1E"/>
<path d="M106 24H118V27H106V24Z" fill="#1E1E1E"/>
<rect x="151" y="26" width="2" height="22" fill="#B2C541"/>
</svg>
