<svg width="212" height="52" viewBox="0 0 212 52" fill="none" xmlns="http://www.w3.org/2000/svg">
<path d="M0 6H292V44H0V6Z" fill="#B2C541"/>
<path d="M36.875 51.6364C35.2557 51.6364 33.8636 51.428 32.6989 51.0114C31.5341 50.6042 30.5634 50.0644 29.7869 49.392C29.0199 48.7292 28.4091 48.0189 27.9545 47.2614L30.625 45.3864C30.928 45.7841 31.3116 46.2386 31.7756 46.75C32.2396 47.2708 32.8741 47.7206 33.679 48.0994C34.4934 48.4877 35.5587 48.6818 36.875 48.6818C38.6364 48.6818 40.09 48.2557 41.2358 47.4034C42.3816 46.5511 42.9545 45.2159 42.9545 43.3977V38.9659H42.6705C42.4242 39.3636 42.0739 39.8561 41.6193 40.4432C41.1742 41.0208 40.5303 41.5369 39.6875 41.9915C38.8542 42.4366 37.7273 42.6591 36.3068 42.6591C34.5455 42.6591 32.964 42.2424 31.5625 41.4091C30.1705 40.5758 29.0672 39.3636 28.2528 37.7727C27.4479 36.1818 27.0455 34.25 27.0455 31.9773C27.0455 29.7424 27.4384 27.7964 28.2244 26.1392C29.0104 24.4725 30.1042 23.1847 31.5057 22.2756C32.9072 21.357 34.5265 20.8977 36.3636 20.8977C37.7841 20.8977 38.911 21.1345 39.7443 21.608C40.5871 22.072 41.2311 22.6023 41.6761 23.1989C42.1307 23.786 42.4811 24.2689 42.7273 24.6477H43.0682V21.1818H46.3068V43.625C46.3068 45.5 45.8807 47.0246 45.0284 48.1989C44.1856 49.3826 43.0492 50.2491 41.6193 50.7983C40.1989 51.357 38.6174 51.6364 36.875 51.6364ZM36.7614 39.6477C38.1061 39.6477 39.2424 39.34 40.1705 38.7244C41.0985 38.1089 41.804 37.2235 42.2869 36.0682C42.7699 34.9129 43.0114 33.5303 43.0114 31.9205C43.0114 30.3485 42.7746 28.9612 42.3011 27.7585C41.8277 26.5559 41.1269 25.6136 40.1989 24.9318C39.2708 24.25 38.125 23.9091 36.7614 23.9091C35.3409 23.9091 34.1572 24.2689 33.2102 24.9886C32.2727 25.7083 31.5672 26.6742 31.0938 27.8864C30.6297 29.0985 30.3977 30.4432 30.3977 31.9205C30.3977 33.4356 30.6345 34.7756 31.108 35.9403C31.5909 37.0956 32.3011 38.0047 33.2386 38.6676C34.1856 39.321 35.3598 39.6477 36.7614 39.6477ZM54.4432 43V21.1818H57.6818V24.4773H57.9091C58.3068 23.3977 59.0265 22.5218 60.0682 21.8494C61.1098 21.1771 62.2841 20.8409 63.5909 20.8409C63.8371 20.8409 64.1449 20.8456 64.5142 20.8551C64.8835 20.8646 65.1629 20.8788 65.3523 20.8977V24.3068C65.2386 24.2784 64.9782 24.2358 64.571 24.179C64.1733 24.1127 63.7519 24.0795 63.3068 24.0795C62.2462 24.0795 61.2992 24.3021 60.4659 24.7472C59.642 25.1828 58.9886 25.7888 58.5057 26.5653C58.0322 27.3324 57.7955 28.2083 57.7955 29.1932V43H54.4432ZM77.6737 43.4545C75.5714 43.4545 73.758 42.9905 72.2334 42.0625C70.7182 41.125 69.5487 39.8182 68.7249 38.142C67.9105 36.4564 67.5033 34.4962 67.5033 32.2614C67.5033 30.0265 67.9105 28.0568 68.7249 26.3523C69.5487 24.6383 70.6946 23.303 72.1624 22.3466C73.6396 21.3807 75.3631 20.8977 77.3328 20.8977C78.4692 20.8977 79.5913 21.0871 80.6993 21.4659C81.8072 21.8447 82.8158 22.4602 83.7249 23.3125C84.634 24.1553 85.3584 25.2727 85.8982 26.6648C86.4379 28.0568 86.7078 29.7708 86.7078 31.8068V33.2273H69.8896V30.3295H83.2987C83.2987 29.0985 83.0525 28 82.5601 27.0341C82.0771 26.0682 81.3858 25.3059 80.4862 24.7472C79.5961 24.1884 78.5449 23.9091 77.3328 23.9091C75.9976 23.9091 74.8423 24.2405 73.8669 24.9034C72.901 25.5568 72.1576 26.4091 71.6368 27.4602C71.116 28.5114 70.8555 29.6383 70.8555 30.8409V32.7727C70.8555 34.4205 71.1396 35.8172 71.7078 36.9631C72.2855 38.0994 73.0857 38.9659 74.1084 39.5625C75.1311 40.1496 76.3196 40.4432 77.6737 40.4432C78.5544 40.4432 79.3499 40.3201 80.0601 40.0739C80.7798 39.8182 81.4 39.4394 81.9209 38.9375C82.4417 38.4261 82.8442 37.7917 83.1283 37.0341L86.3669 37.9432C86.026 39.0417 85.4531 40.0076 84.6482 40.8409C83.8432 41.6648 82.8489 42.3087 81.6652 42.7727C80.4815 43.2273 79.151 43.4545 77.6737 43.4545ZM98.155 43.4545C96.0527 43.4545 94.2393 42.9905 92.7146 42.0625C91.1995 41.125 90.03 39.8182 89.2061 38.142C88.3917 36.4564 87.9845 34.4962 87.9845 32.2614C87.9845 30.0265 88.3917 28.0568 89.2061 26.3523C90.03 24.6383 91.1758 23.303 92.6436 22.3466C94.1209 21.3807 95.8444 20.8977 97.8141 20.8977C98.9504 20.8977 100.073 21.0871 101.181 21.4659C102.288 21.8447 103.297 22.4602 104.206 23.3125C105.115 24.1553 105.84 25.2727 106.379 26.6648C106.919 28.0568 107.189 29.7708 107.189 31.8068V33.2273H90.3709V30.3295H103.78C103.78 29.0985 103.534 28 103.041 27.0341C102.558 26.0682 101.867 25.3059 100.967 24.7472C100.077 24.1884 99.0262 23.9091 97.8141 23.9091C96.4788 23.9091 95.3235 24.2405 94.3482 24.9034C93.3822 25.5568 92.6389 26.4091 92.118 27.4602C91.5972 28.5114 91.3368 29.6383 91.3368 30.8409V32.7727C91.3368 34.4205 91.6209 35.8172 92.1891 36.9631C92.7667 38.0994 93.5669 38.9659 94.5896 39.5625C95.6124 40.1496 96.8008 40.4432 98.155 40.4432C99.0357 40.4432 99.8311 40.3201 100.541 40.0739C101.261 39.8182 101.881 39.4394 102.402 38.9375C102.923 38.4261 103.325 37.7917 103.61 37.0341L106.848 37.9432C106.507 39.0417 105.934 40.0076 105.129 40.8409C104.324 41.6648 103.33 42.3087 102.146 42.7727C100.963 43.2273 99.6322 43.4545 98.155 43.4545ZM114.841 29.875V43H111.488V21.1818H114.727V24.5909H115.011C115.523 23.483 116.299 22.5928 117.341 21.9205C118.382 21.2386 119.727 20.8977 121.375 20.8977C122.852 20.8977 124.145 21.2008 125.253 21.8068C126.361 22.4034 127.222 23.3125 127.838 24.5341C128.453 25.7462 128.761 27.2803 128.761 29.1364V43H125.409V29.3636C125.409 27.6496 124.964 26.3144 124.074 25.358C123.184 24.392 121.962 23.9091 120.409 23.9091C119.339 23.9091 118.382 24.1411 117.54 24.6051C116.706 25.0691 116.048 25.7462 115.565 26.6364C115.082 27.5265 114.841 28.6061 114.841 29.875Z" fill="#1E1E1E"/>
<path d="M130.227 6V22H128.836V6H130.227ZM137.258 22.2734C136.534 22.2734 135.872 22.1328 135.273 21.8516C134.674 21.5651 134.198 21.1536 133.844 20.6172C133.49 20.0755 133.313 19.4193 133.313 18.6484C133.313 18.0547 133.424 17.5547 133.648 17.1484C133.872 16.7422 134.19 16.4089 134.602 16.1484C135.013 15.888 135.5 15.6823 136.063 15.5312C136.625 15.3802 137.245 15.263 137.922 15.1797C138.594 15.0964 139.161 15.0234 139.625 14.9609C140.094 14.8984 140.451 14.7995 140.695 14.6641C140.94 14.5286 141.063 14.3099 141.063 14.0078V13.7266C141.063 12.9089 140.818 12.2656 140.328 11.7969C139.844 11.3229 139.146 11.0859 138.234 11.0859C137.37 11.0859 136.664 11.276 136.117 11.6562C135.576 12.0365 135.195 12.4844 134.977 13L133.656 12.5234C133.927 11.8672 134.302 11.3437 134.781 10.9531C135.26 10.5573 135.797 10.2734 136.391 10.1016C136.984 9.92448 137.586 9.83594 138.195 9.83594C138.654 9.83594 139.13 9.89583 139.625 10.0156C140.125 10.1354 140.589 10.3437 141.016 10.6406C141.443 10.9323 141.789 11.3411 142.055 11.8672C142.32 12.388 142.453 13.0495 142.453 13.8516V22H141.063V20.1016H140.977C140.81 20.4557 140.562 20.7995 140.234 21.1328C139.906 21.4661 139.495 21.7396 139 21.9531C138.505 22.1667 137.924 22.2734 137.258 22.2734ZM137.445 21C138.185 21 138.826 20.8359 139.367 20.5078C139.909 20.1797 140.326 19.7448 140.617 19.2031C140.914 18.6562 141.063 18.0547 141.063 17.3984V15.6641C140.958 15.763 140.784 15.8516 140.539 15.9297C140.299 16.0078 140.021 16.0781 139.703 16.1406C139.391 16.1979 139.078 16.2474 138.766 16.2891C138.453 16.3307 138.172 16.3672 137.922 16.3984C137.245 16.4818 136.667 16.612 136.188 16.7891C135.708 16.9661 135.341 17.2109 135.086 17.5234C134.831 17.8307 134.703 18.2266 134.703 18.7109C134.703 19.4401 134.964 20.0052 135.484 20.4062C136.005 20.8021 136.659 21 137.445 21ZM146.441 22V6H147.84V12.2891H147.965C148.121 11.9297 148.345 11.5599 148.637 11.1797C148.934 10.7995 149.322 10.4818 149.801 10.2266C150.285 9.96615 150.895 9.83594 151.629 9.83594C152.613 9.83594 153.478 10.0964 154.223 10.6172C154.967 11.1328 155.548 11.8568 155.965 12.7891C156.382 13.7161 156.59 14.7969 156.59 16.0313C156.59 17.2708 156.382 18.3568 155.965 19.2891C155.553 20.2214 154.975 20.9479 154.23 21.4687C153.491 21.9896 152.632 22.25 151.652 22.25C150.923 22.25 150.314 22.1198 149.824 21.8594C149.34 21.599 148.949 21.2786 148.652 20.8984C148.355 20.513 148.126 20.138 147.965 19.7734H147.793V22H146.441ZM147.816 16.0078C147.816 16.9766 147.96 17.8359 148.246 18.5859C148.538 19.3307 148.954 19.9167 149.496 20.3437C150.043 20.7656 150.704 20.9766 151.48 20.9766C152.277 20.9766 152.952 20.7578 153.504 20.3203C154.056 19.8776 154.475 19.2812 154.762 18.5313C155.048 17.7812 155.191 16.9401 155.191 16.0078C155.191 15.0859 155.048 14.2552 154.762 13.5156C154.48 12.776 154.064 12.1901 153.512 11.7578C152.96 11.3203 152.283 11.1016 151.48 11.1016C150.699 11.1016 150.035 11.3125 149.488 11.7344C148.947 12.151 148.533 12.7292 148.246 13.4687C147.96 14.2031 147.816 15.0495 147.816 16.0078Z" fill="#1E1E1E"/>
<path d="M45 21.2H57V24.2H45V21.2Z" fill="#1E1E1E"/>
<rect x="85" y="20" width="2" height="22" fill="#B2C541"/>
</svg>
